<?xml version="1.0" encoding="utf-8"?>
<!-- Generator: Adobe Illustrator 27.0.1, SVG Export Plug-In . SVG Version: 6.00 Build 0)  -->
<svg version="1.1" id="Layer_1" xmlns="http://www.w3.org/2000/svg" xmlns:xlink="http://www.w3.org/1999/xlink" x="0px" y="0px"
	 viewBox="0 0 612 612" style="enable-background:new 0 0 612 612;" xml:space="preserve">
<style type="text/css">
	.st0{fill:#FFE4B3;}
</style>
<path class="st0" d="M586.48,215.92c-3.37,0.08-6.75,0.14-10.12,0.25c-4.17,0.14-8.34,0.23-12.49,0.54
	c-4.48,0.34-8.95,0.87-13.41,1.38c-10.72,1.22-21.29,3.27-31.73,5.89c-18.12,4.56-35.5,10.98-52.16,19.23
	c-11.56,5.72-22.59,12.27-33.15,19.56c-12.57,8.68-24.2,18.41-34.89,29.16c-18.35,18.47-33.37,39.19-45.01,62.17
	c-0.29,0.57-0.57,1.15-0.89,1.71c-0.11,0.2-0.32,0.35-0.62,0.67c-1.15-2.62-1.94-5.16-2.93-7.64c-1-2.5-1.96-5.01-2.99-7.49
	c-1.03-2.49-2.09-4.96-3.18-7.42c-1.09-2.46-2.22-4.91-3.37-7.34c-1.13-2.38-2.28-4.74-3.47-7.09c-1.21-2.41-2.46-4.8-3.73-7.18
	c-1.27-2.38-2.57-4.74-3.91-7.09c-1.33-2.35-2.7-4.68-4.09-7c-1.39-2.32-2.81-4.62-4.26-6.9c-1.45-2.28-2.94-4.54-4.45-6.79
	c-1.51-2.25-3.04-4.48-4.61-6.69c-1.57-2.21-3.16-4.4-4.78-6.58c-1.58-2.12-3.19-4.23-4.82-6.32c-1.68-2.13-3.38-4.25-5.11-6.34
	c-1.73-2.1-3.51-4.15-5.25-6.24c-1.73-2.07-3.66-3.98-5.46-6.3c0.47-0.05,0.71-0.11,0.93-0.1c0.53,0.04,1.05,0.13,1.58,0.16
	c7.14,0.46,14.28,0.56,21.43,0.49c1.06-0.01,2.12-0.03,3.18-0.03c4.37-0.02,8.73-0.31,13.08-0.69c3.43-0.3,6.86-0.52,10.27-0.91
	c3.87-0.45,7.74-0.98,11.59-1.59c7.44-1.17,14.82-2.66,22.13-4.48c21.13-5.24,41.24-12.92,60.37-23.04
	c14.08-7.45,27.3-16.12,39.67-25.99c17.22-13.74,32.28-29.42,45.21-46.99c4.14-5.62,8.01-11.4,11.66-17.32
	c0.36-0.59,0.6-1.29,1.4-1.7c0.58,0.31,1.21,0.63,1.83,0.97c18.68,10.38,37.35,20.77,56.03,31.15c0.17,0.09,0.36,0.15,0.54,0.23
	C586.48,176.14,586.48,196.03,586.48,215.92z"/>
<path class="st0" d="M586.48,298.14c-3.9-0.05-7.81-0.13-11.71,0.21c-2.57,0.22-5.16,0.26-7.72,0.51c-3.35,0.33-6.71,0.7-10.04,1.2
	c-9.3,1.4-18.42,3.52-27.35,6.4c-20.96,6.76-39.89,16.99-56.76,30.75c-16.5,13.47-29.8,29.43-40.01,47.79
	c-8.22,14.78-13.89,30.42-17.19,46.86c-1.3,6.51-2.15,13.08-2.62,19.7c-0.45,6.43-0.48,12.87-0.2,19.3
	c0.24,5.6,0.89,11.17,1.78,16.72c1.58,9.85,4.09,19.47,7.47,28.89c4.02,11.19,9.35,21.78,15.76,31.87c0.34,0.53,0.82,1.01,0.84,1.88
	c-0.06,0.03-0.23,0.13-0.4,0.23c-11.91,6.62-23.83,13.24-35.67,19.82c-0.82-0.14-1.02-0.74-1.31-1.21
	c-1.89-3.14-3.83-6.26-5.62-9.46c-9.02-16.07-15.68-33.01-19.97-50.8c-1.68-6.95-2.98-13.97-3.85-21.07
	c-0.54-4.37-0.93-8.74-1.23-13.13c-0.47-6.82-0.43-13.63-0.19-20.45c0.15-4.32,0.61-8.64,1.03-12.95
	c0.99-10.23,2.96-20.31,5.65-30.25c7.75-28.59,21.12-54.5,40.46-77.46c24.68-29.29,55.5-50.39,92.18-63.59
	c11.74-4.23,23.81-7.33,36.15-9.46c5.27-0.91,10.58-1.62,15.92-2.1c3.69-0.33,7.38-0.57,11.08-0.79c4.04-0.24,8.07-0.26,12.11-0.27
	c0.46,0,0.92-0.05,1.38-0.08C586.48,270.86,586.48,284.5,586.48,298.14z"/>
<path class="st0" d="M586.48,380.37c-3.7-0.17-7.4-0.12-11.1,0.22c-6.15,0.56-12.17,1.71-18.04,3.55
	c-15.62,4.9-28.75,13.4-39.33,25.49c-9.54,10.9-15.62,23.42-18.47,37.39c-0.8,3.94-1.22,7.93-1.45,11.94
	c-0.2,3.51-0.09,7.01,0.21,10.5c0.69,8.05,2.6,15.84,5.72,23.34c2.1,5.04,4.67,9.85,7.74,14.41c0.35,0.53,0.68,1.07,1.14,1.8
	c-0.27,0.16-0.5,0.28-0.72,0.42c-2.57,1.62-34.54,19.23-35.82,19.73c-0.67-0.24-0.9-0.89-1.24-1.41c-3.98-6.11-7.37-12.52-10.2-19.2
	c-3.71-8.77-6.27-17.85-7.8-27.2c-1.16-7.07-1.54-14.18-1.4-21.33c0.46-22.03,6.65-42.47,18.44-61.32
	c12.13-19.41,28.72-34.33,49.46-44.99c10.1-5.19,20.75-8.95,31.92-11.36c4.32-0.93,8.69-1.62,13.1-2.12
	c5.67-0.65,11.34-0.82,17.04-0.76c0.26,0,0.53-0.02,0.79-0.02C586.48,353.09,586.48,366.73,586.48,380.37z"/>
<path class="st0" d="M586.48,468.34c-0.42,0.17-0.85,0.31-1.24,0.53c-10.94,6.07-21.88,12.15-32.82,18.22
	c-0.62,0.34-1.25,0.66-1.78,0.94c-0.84-0.32-1.15-0.91-1.53-1.42c-4.51-6.02-7.27-12.68-7.93-20.1
	c-1.19-13.36,3.28-24.72,13.3-33.96c6.23-5.75,13.76-9.15,22.3-10.47c2.5-0.39,5-0.41,7.52-0.42c0.73,0,1.45,0.02,2.18,0.03
	C586.48,437.23,586.48,452.78,586.48,468.34z"/>
<path class="st0" d="M283.97,611.27c-1.91-0.75-30.24-16.35-35.35-19.43c-0.33-0.2-0.61-0.45-0.91-0.68
	c-0.01-0.9,0.57-1.48,0.97-2.12c3.32-5.3,6.41-10.71,9.29-16.24c9.1-17.45,15.93-35.69,20.52-54.7c1.78-7.39,3.2-14.84,4.22-22.36
	c0.66-4.86,1.17-9.74,1.6-14.63c0.8-9.22,0.89-18.46,0.59-27.7c-0.15-4.64-0.61-9.28-0.99-13.91c-0.56-6.86-1.59-13.67-2.84-20.44
	c-2.53-13.71-6.25-27.11-11.16-40.2c-5.59-14.91-12.62-29.16-21.08-42.76c-6.95-11.17-14.78-21.75-23.47-31.74
	c-5.23-6.01-10.73-11.8-16.53-17.3c-10.64-10.08-22.08-19.23-34.37-27.4c-14.26-9.49-29.35-17.52-45.3-24.05
	c-14.96-6.12-30.38-10.85-46.28-14.11c-6.41-1.32-12.85-2.42-19.34-3.26c-4.26-0.55-8.55-0.87-12.82-1.3
	c-5.2-0.52-10.42-0.73-15.65-0.79c-2.58-0.03-5.16-0.12-7.74-0.19c-0.2,0-0.4,0-0.59-0.03c-0.72-0.08-1.04-0.38-1.13-1.1
	c-0.06-0.5-0.06-1.02-0.06-1.53c0-11.79,0-23.58,0-35.37c0-0.57,0.03-1.15,0.11-1.71c0.06-0.41,0.36-0.68,0.8-0.72
	c0.46-0.04,0.92-0.06,1.39-0.06c3.64,0.02,7.28-0.03,10.92,0.09c3.57,0.11,7.13,0.38,10.7,0.6c2.44,0.15,4.89,0.29,7.32,0.5
	c2.83,0.24,5.66,0.51,8.49,0.86c3.34,0.41,6.68,0.89,10.02,1.37c6.81,0.98,13.55,2.26,20.26,3.73c21.18,4.63,41.58,11.45,61.2,20.42
	c20.96,9.58,40.49,21.37,58.59,35.34c11.13,8.58,21.57,17.88,31.31,27.9c17.92,18.43,33.1,38.76,45.48,61.03
	c9.43,16.97,17.02,34.67,22.73,53.11c3.48,11.24,6.27,22.65,8.21,34.24c0.83,4.97,1.64,9.94,2.22,14.94
	c0.6,5.19,1.02,10.4,1.34,15.61c0.33,5.4,0.5,10.82,0.63,16.23c0.07,2.67-0.08,5.35-0.18,8.03c-0.16,4.46-0.26,8.92-0.59,13.37
	c-0.35,4.7-0.89,9.39-1.42,14.07c-1.26,11.1-3.36,22.05-6.08,32.9c-4.58,18.26-10.94,35.94-19.15,52.99
	c-4.26,8.85-8.98,17.48-14.15,25.87C285.15,609.48,284.58,610.33,283.97,611.27z"/>
<path class="st0" d="M25.97,257.51c3.03-0.69,21.14,0.42,26.97,1.06c23.74,2.61,46.42,8.81,67.97,18.75
	c19.85,9.15,37.81,20.99,53.86,35.49c16.29,14.72,29.89,31.48,40.74,50.3c10.62,18.42,18.05,37.96,22.42,58.59
	c4.02,18.98,5.09,38.15,3.51,57.43c-1.89,23-7.71,45.08-17.42,66.18c-4.43,9.63-11.61,22.43-13.92,24.92
	c-0.71-0.05-1.28-0.53-1.89-0.86c-10.14-5.63-20.28-11.27-30.42-16.9c-1.03-0.57-2.07-1.13-3.1-1.71c-0.33-0.19-0.63-0.43-0.91-0.62
	c-0.03-0.8,0.5-1.25,0.83-1.78c7.06-11.08,12.71-22.78,16.88-35.14c3.01-8.93,5.17-18.04,6.59-27.33c1.47-9.62,1.83-19.28,1.6-28.97
	c-0.18-7.47-1.04-14.86-2.33-22.22c-2.39-13.64-6.58-26.76-12.44-39.39c-6.58-14.17-15.11-27.17-25.55-38.99
	c-17.44-19.77-38.54-34.79-63.29-45.05c-11.53-4.78-23.48-8.25-35.83-10.42c-4.62-0.81-9.28-1.37-13.94-1.93
	c-2.42-0.29-4.88-0.3-7.32-0.51c-3.83-0.33-7.67-0.33-11.51-0.32c-0.33,0-0.66-0.02-0.99-0.05c-0.44-0.05-0.76-0.31-0.81-0.72
	c-0.08-0.63-0.12-1.27-0.12-1.9c-0.01-6.44,0-12.87,0-19.31c0-5.42-0.01-10.83,0.01-16.25C25.54,259.05,25.38,258.2,25.97,257.51z"
	/>
<path class="st0" d="M490.6,103.07c-0.45,0.78-0.79,1.39-1.15,1.98c-7.46,12.1-16.11,23.34-25.97,33.73
	c-9.18,9.68-19.22,18.44-30.18,26.21c-15.37,10.91-31.95,19.73-49.76,26.4c-12.55,4.7-25.46,8.2-38.69,10.58
	c-4.87,0.88-9.78,1.56-14.72,2.09c-5.66,0.6-11.32,1.08-17.02,1.17c-3.11,0.05-6.22,0.26-9.33,0.19c-4.3-0.09-8.59-0.33-12.88-0.6
	c-3.56-0.23-7.13-0.49-10.67-0.92c-4.26-0.52-8.52-1.14-12.74-1.89c-11.81-2.07-23.35-5.11-34.61-9.11
	c-22.17-7.87-42.46-18.97-60.85-33.26c-12.93-10.06-24.46-21.44-34.59-34.13c-5.21-6.53-10-13.32-14.36-20.41
	c-0.36-0.59-0.86-1.14-0.92-1.96c0.34-0.62,1.06-0.85,1.67-1.2c5.67-3.16,11.34-6.31,17.01-9.47c5.16-2.87,10.31-5.73,15.47-8.59
	c0.62-0.35,1.26-0.66,1.79-0.94c0.91,0.21,1.1,0.89,1.45,1.4c2.12,3.16,4.16,6.37,6.35,9.48c4.43,6.29,9.37,12.18,14.73,17.77
	c17.15,17.88,37.46,31.41,60.8,40.72c10.67,4.25,21.69,7.39,33.05,9.43c4.55,0.82,9.13,1.44,13.73,1.94
	c5.53,0.6,11.08,0.84,16.64,0.95c4.9,0.09,9.79-0.23,14.67-0.58c3.63-0.27,7.24-0.68,10.84-1.15c4.66-0.61,9.27-1.46,13.85-2.47
	c17.55-3.87,34.08-10.23,49.55-19.1c9.93-5.69,19.15-12.3,27.69-19.8c12.31-10.82,22.73-23.12,31.29-36.88
	c0.37-0.59,0.63-1.28,1.31-1.65c0.73-0.07,1.24,0.4,1.79,0.71c5.85,3.24,11.69,6.49,17.54,9.74c5.1,2.83,10.2,5.67,15.29,8.51
	C489.25,102.27,489.81,102.6,490.6,103.07z"/>
<path class="st0" d="M136.2,529.39c-12.28-6.82-24.36-13.51-36.33-20.2c-0.13-0.82,0.36-1.23,0.68-1.69
	c2.94-4.34,5.46-8.88,7.5-13.67c2.93-6.87,4.91-13.99,5.8-21.38c0.43-3.55,0.75-7.1,0.68-10.67c-0.36-18.15-6.08-34.55-17.48-49.04
	c-6.3-8.01-13.93-14.62-22.75-20c-9.23-5.63-19.25-9.3-29.97-11.21c-5.35-0.95-10.75-1.39-16.19-1.27
	c-0.72,0.02-1.45,0.15-2.25-0.22c-0.1-0.29-0.27-0.64-0.32-1c-0.06-0.57-0.04-1.15-0.04-1.72c0-11.6,0-23.2,0-34.79
	c0-3.31,0.04-3.02,3.14-3.06c4.24-0.06,8.47,0.09,12.69,0.49c15.15,1.46,29.61,5.29,43.33,11.7c13.72,6.41,25.85,14.92,36.44,25.47
	c8,7.98,14.71,16.87,20.23,26.6c5.52,9.73,9.58,20,12.18,30.8c1.29,5.34,2.22,10.74,2.72,16.21c0.39,4.38,0.72,8.77,0.63,13.16
	c-0.46,23.02-6.84,44.36-19.54,63.9C137.03,528.3,136.67,528.74,136.2,529.39z"/>
<path class="st0" d="M195.97,62.04c1.49-1.1,34.91-19.66,36.43-20.22c0.31,0.44,0.65,0.89,0.96,1.37
	c3.46,5.38,7.44,10.38,12.09,14.87c10.65,10.28,23.22,17.43,37.73,21.39c5.23,1.43,10.55,2.41,15.99,2.73
	c2.18,0.13,4.36,0.29,6.54,0.31c8.6,0.1,17.02-1.13,25.24-3.54c15.24-4.47,28.22-12.4,38.9-23.79c3.38-3.6,6.39-7.48,9.02-11.63
	c0.37-0.59,0.78-1.15,1.2-1.76c0.43,0.16,0.75,0.24,1.03,0.4c11.8,6.55,23.6,13.11,35.29,19.61c0.2,0.82-0.26,1.26-0.55,1.73
	c-2.64,4.28-5.54,8.39-8.72,12.31c-13.22,16.29-29.65,28.64-49.29,37c-9.48,4.04-19.34,6.91-29.56,8.61
	c-4.5,0.75-9.03,1.25-13.58,1.59c-3.77,0.28-7.54,0.35-11.31,0.25c-3.57-0.1-7.13-0.38-10.69-0.68c-6.54-0.55-12.96-1.78-19.3-3.4
	c-12.18-3.11-23.61-7.89-34.33-14.25c-11.07-6.57-20.87-14.59-29.39-24.06c-4.82-5.36-9.15-11.07-12.9-17.17
	c-0.24-0.38-0.47-0.77-0.68-1.16C196.01,62.42,196.01,62.28,195.97,62.04z"/>
<path class="st0" d="M61.96,488.08c-0.61-0.32-1.13-0.57-1.65-0.86c-10.89-6.05-21.77-12.11-32.66-18.15
	c-2.03-1.13-2.13-0.94-2.13-3.6c0-13.7,0-27.41,0-41.11c0-2.65,0.02-2.63,2.74-2.72c19.8-0.6,37.8,12.73,42.2,31.7
	c2.79,12.03,0.38,23.15-7.06,33.22c-0.27,0.36-0.56,0.71-0.86,1.05C62.44,487.75,62.26,487.85,61.96,488.08z"/>
<path class="st0" d="M269.84,20.92c0.15-0.12,0.33-0.3,0.55-0.42c11.9-6.63,23.81-13.25,35.54-19.77c0.31,0.02,0.38,0.02,0.44,0.03
	c0.06,0.01,0.14,0.01,0.19,0.04c11.52,6.38,23.04,12.77,34.56,19.15c0.4,0.22,0.8,0.45,1.19,0.69c0.1,0.06,0.17,0.19,0.34,0.38
	c-0.05,0.66-0.54,1.19-0.93,1.76c-5.71,8.29-13.55,13.83-23.42,16.73c-3.75,1.1-7.6,1.61-11.54,1.66
	c-9.98,0.14-18.86-2.83-26.75-8.65c-3.76-2.78-6.9-6.13-9.47-9.96c-0.25-0.37-0.47-0.77-0.68-1.16
	C269.82,21.28,269.85,21.14,269.84,20.92z"/>
</svg>
